<?xml version="1.0" encoding="UTF-8"?>
<svg width="1980px" height="2326px" viewBox="0 0 1980 2326" xmlns="http://www.w3.org/2000/svg" xmlns:xlink="http://www.w3.org/1999/xlink" version="1.1">
 <!-- Generated by Pixelmator Pro 1.5.4 -->
 <defs>
  <path id="Shape" d="M964.099 2224.998 C835.174 2224.192 707.543 2031.946 623.09 1922.666 530.432 1802.771 338.478 1486.176 248.912 1268.598 203.464 1158.193 78.559 868.883 80.012 643.193 81.313 440.981 232.029 270.717 378.066 193.049 543.228 105.209 788.853 76.523 981.678 80.33 1093.309 82.534 1283.165 95.746 1428.613 132.447 1631.952 183.756 1872.381 351.27 1893.738 635.375 1909.132 840.155 1779.83 1121.1 1714.445 1281.627 1612.567 1531.748 1402.83 1846.313 1312.889 1960.461 1222.947 2074.609 1097.495 2221.178 968.685 2224.945 967.156 2224.99 965.628 2225.008 964.099 2224.998 Z M292.801 962 L376.801 962 376.801 615.5 292.801 615.5 292.801 962 Z M542 962 L569.301 962 C632.301 962 679.199 927.7 679.199 860.5 L679.199 715.6 C679.899 657.5 630.901 614.801 572.801 614.801 L535.699 614.801 C478.299 614.801 429.301 657.5 429.301 715.6 L429.301 860.5 C429.301 924.2 475.5 962 542 962 Z M725.4 962 L809.4 962 809.4 692.5 852.099 692.5 C860.499 692.5 873.099 702.301 873.099 716.301 L873.099 962 957.099 962 957.099 717 C957.099 702.3 969.699 692.5 978.099 692.5 L1003.301 692.5 C1011.701 692.5 1024.301 702.301 1024.301 716.301 L1024.301 962 1108.301 962 1108.301 721.901 C1108.301 663.801 1069.099 615.5 1011.699 615.5 L981.599 615.5 C949.399 615.5 918.599 642.1 915.099 657.5 910.899 642.1 887.1 615.5 850 615.5 L725.4 615.5 725.4 962 Z M1160.801 962 L1244.801 962 1244.801 692.5 1287.5 692.5 C1295.9 692.5 1308.5 702.301 1308.5 716.301 L1308.5 962 1392.5 962 1392.5 717 C1392.5 702.3 1405.1 692.5 1413.5 692.5 L1438.699 692.5 C1447.099 692.5 1459.699 702.301 1459.699 716.301 L1459.699 962 1543.699 962 1543.699 721.901 C1543.699 663.801 1504.499 615.5 1447.099 615.5 L1417 615.5 C1384.8 615.5 1354 642.1 1350.5 657.5 1346.3 642.1 1322.5 615.5 1285.4 615.5 L1160.801 615.5 1160.801 962 Z M1603.199 962 L1687.199 962 1687.199 615.5 1603.199 615.5 1603.199 962 Z M542 885 C525.2 885 513.301 879.4 513.301 860.5 L513.301 715.6 C513.301 702.3 525.899 691.801 535.699 691.801 L572.801 691.801 C583.301 691.801 595.9 702.3 595.9 715.6 L595.9 860.5 C595.2 878.7 588.901 885 569.301 885 L542 885 Z M292.801 556.699 L376.801 556.699 376.801 472 292.801 472 292.801 556.699 Z M1603.199 556.699 L1687.199 556.699 1687.199 472 1603.199 472 1603.199 556.699 Z"/>
 </defs>
 <use id="Shape-1" xlink:href="#Shape" fill="#000000" fill-opacity="1" stroke="none"/>
 <defs>
  <path id="stroke-path" d="M1484.063 164.969 L1464.984 158.516 1441.266 151.344 1421.766 146.203 1394.141 139.734 1365.578 133.75 1332.766 127.641 1303.234 122.75 1258.469 116.297 1213.25 110.781 1168.922 106.219 1125.391 102.516 1084.016 99.641 1044.719 97.5 1044.719 97.484 997.563 95.719 967.734 95.125 931.172 95.094 893.063 95.875 854.734 97.484 815.328 100.016 776.172 103.422 736.438 107.828 706.391 111.813 677.078 116.281 647.531 121.422 598.641 131.391 570.344 138.094 542.391 145.469 514.563 153.656 496.844 159.328 470.469 168.547 453.516 175 428.078 185.563 412.344 192.688 396.844 200.219 374.828 211.922 355.219 223.484 341.656 232.156 322 245.719 302.391 260.469 282.828 276.516 270.625 287.234 251.906 304.844 239.672 317.219 222.406 335.922 210.938 349.297 194.672 369.719 184.375 383.75 169.625 405.563 159.391 422.141 148.5 441.516 138.469 461.344 129.578 481.031 122.969 497.484 115.703 518.047 110.453 535.375 106.141 551.953 102.297 569.875 99.344 587.203 97.125 604.703 95.641 623.203 95.031 640.734 95.156 661.531 96.313 688.281 98.172 712.078 100.547 734.328 103.406 756.047 106.906 778.625 110.781 800.625 117.578 834.359 122.688 857.063 122.672 857.063 130.859 890.391 139.828 923.75 149.469 956.953 159.391 989.109 159.406 989.109 169.828 1021 190.953 1081.406 206.875 1124.109 220.438 1159.047 239.531 1206.531 239.516 1206.531 264.766 1267.719 287.734 1320.375 303.141 1353.516 303.125 1353.516 319.328 1387.047 336.531 1421.406 360.578 1467.875 385.688 1514.688 411.531 1561.391 437.828 1607.563 467.578 1658.328 493.828 1701.891 519.594 1743.547 544.578 1782.859 565.656 1815.125 588.219 1848.656 609.234 1878.75 628.359 1904.875 691.391 1988.047 720.297 2025.344 737.828 2047.109 758.703 2071.953 774.266 2089.578 790.328 2106.859 806.625 2123.359 823.547 2139.313 840.094 2153.625 856.563 2166.547 872.078 2177.391 886.141 2186.031 900.109 2193.453 913.766 2199.469 927.703 2204.313 938.484 2207.078 952.234 2209.297 964.188 2209.984 972.484 2209.781 983.375 2208.797 991.719 2207.578 1002.906 2205.297 1011.25 2203.156 1022.313 2199.719 1033.797 2195.484 1043.016 2191.594 1054.688 2186.078 1065.656 2180.297 1087.891 2166.922 1110.188 2151.406 1131.859 2134.422 1153.328 2115.828 1180.172 2090.375 1205.469 2064.297 1230.328 2036.891 1261.5 2000.328 1288.188 1967.469 1316.594 1931.094 1345.203 1892.297 1380.656 1841.984 1419.5 1784.547 1450.484 1737.125 1485.656 1681.578 1521.344 1623.109 1549.875 1574.734 1584.531 1513.578 1611.344 1464.047 1637.063 1414.281 1655.094 1377.688 1672.359 1340.984 1688.172 1305.469 1754.313 1145.922 1778.063 1086.344 1791.828 1050.234 1807.297 1007.766 1818.313 975.875 1818.297 975.875 1828.953 943.188 1838.797 910.922 1847.953 878.344 1856.297 845.453 1863.531 813.156 1867.641 792.234 1871.266 771.203 1875.375 742 1877.969 716.656 1879.531 691.813 1879.984 667.266 1879.484 648.25 1877.922 626.625 1875.828 607.922 1871.938 583.234 1866.844 558.953 1860.656 535.375 1853.531 512.875 1845.172 490.391 1836.109 469.234 1826.031 448.563 1814.922 428.219 1803.078 408.688 1790.484 389.938 1777.141 371.766 1759.641 350.203 1744.375 333.078 1725.156 313.359 1708.906 298.063 1687.906 279.875 1670.766 266.203 1652.953 252.969 1635 240.578 1612.156 226 1593.531 215.031 1569.875 202.234 1550.828 192.75 1527.25 182 1507.688 173.875 Z M1588.188 571.703 L1588.188 457.016 1702.188 457.016 1702.188 571.703 Z M277.797 571.703 L277.797 457.016 391.797 457.016 391.797 571.703 Z M530.344 976.656 L520.578 975.75 511.078 974.313 501.922 972.328 493.047 969.828 484.484 966.781 476.297 963.172 468.5 959.063 461.078 954.406 454.109 949.219 447.609 943.5 441.609 937.313 436.141 930.609 431.219 923.453 426.906 915.844 423.141 907.719 419.219 896.563 416.953 887.453 415.047 875.25 414.359 865.484 414.297 713.859 414.781 704.719 416.547 692.781 420.375 678.641 426 665.25 433.203 652.859 441.859 641.547 451.813 631.422 462.938 622.547 475.047 615.031 488 608.953 499.047 605.094 510.438 602.266 522.156 600.5 533.906 599.813 574.5 599.813 583.438 600.234 592.406 601.25 601.188 602.891 609.75 605.094 618.234 607.922 631.313 613.656 643.703 620.938 655.063 629.531 665.25 639.453 674.172 650.547 681.641 662.766 687.469 675.891 690.969 687.328 693.547 701.875 694.203 713.844 694.188 862.5 693.453 875.75 691.516 888.469 689.234 897.781 685.281 909.219 680.188 919.938 674.016 929.828 666.859 938.813 658.781 946.859 649.875 953.969 640.234 960.094 629.922 965.234 619.047 969.422 607.672 972.688 595.656 975.063 577.359 976.859 541.781 977.016 Z M1588.188 977.016 L1588.188 600.516 1702.188 600.516 1702.188 977.016 Z M277.797 977.016 L277.797 600.516 391.797 600.516 391.797 977.016 Z M710.391 977.016 L710.391 600.516 851.313 600.516 860.047 601.031 867.984 602.281 878.641 605.172 888.516 609.234 897.422 614.188 905.281 619.813 912.234 626 915.625 629.859 917.844 627.469 925.141 621.234 935.766 614.016 944.906 609.156 954.641 605.203 964.859 602.313 972.328 601.047 980.344 600.516 1013.516 600.516 1025.313 601.281 1036.953 603.344 1048.078 606.578 1058.578 610.938 1068.453 616.328 1077.719 622.766 1087.984 631.844 1095.563 640.266 1103.656 651.531 1110.469 663.859 1115.875 677.031 1119.844 690.828 1121.969 702.391 1122.922 711.375 1123.281 720.234 1123.297 977.016 1009.297 977.016 1009.297 717.016 1009.109 715.047 1008.297 712.641 1007.141 710.813 1005.016 708.766 1003.328 707.813 1002.031 707.516 979.172 707.516 978.313 707.641 977.703 707.891 976.422 708.703 975.063 709.938 973.703 711.656 973.156 712.625 972.406 714.781 972.172 716.203 972.094 977.016 858.094 977.016 858.094 717.313 857.734 714.375 856.953 712.391 855.188 709.984 853.172 708.344 851.516 707.594 851.016 707.516 824.391 707.516 824.391 977.016 Z M1145.797 977.016 L1145.797 600.516 1286.719 600.516 1295.453 601.031 1303.375 602.281 1314.031 605.172 1323.906 609.219 1332.813 614.172 1340.688 619.813 1347.641 626 1351.047 629.875 1355.609 625.328 1365.672 617.516 1377.094 610.734 1386.719 606.406 1396.906 603.109 1407.563 601.063 1415.75 600.516 1451.703 600.578 1460.828 601.313 1472.359 603.344 1483.563 606.609 1496.516 612.156 1508.547 619.391 1519.359 628.016 1527.281 635.969 1534.328 644.609 1540.531 653.938 1545.844 663.859 1550.297 674.328 1553.828 685.281 1556.422 696.563 1557.781 705.625 1558.688 721.484 1558.688 977.016 1444.688 977.016 1444.688 717.156 1444.484 714.969 1443.719 712.672 1442.531 710.813 1440.406 708.766 1438.734 707.813 1437.422 707.516 1414.578 707.516 1413.719 707.641 1413.078 707.906 1411.828 708.688 1410.484 709.906 1409.109 711.656 1408.547 712.641 1407.781 714.813 1407.578 716.141 1407.484 977.016 1293.484 977.016 1293.484 717.234 1293.141 714.375 1292.375 712.422 1290.563 709.969 1288.563 708.328 1286.938 707.594 1286.406 707.516 1259.797 707.516 1259.797 977.016 Z M571.375 869.969 L576.016 869.563 577.578 869.234 579.375 868.438 579.422 868.359 580.219 865.891 580.891 859.656 580.813 715.484 580.203 712.844 579.859 712.109 579.375 711.359 576.516 708.469 575.719 707.938 574.594 707.391 571.734 706.813 536.344 706.813 535.203 707 534.625 707.188 533.422 707.859 530.875 710.078 529.203 712.531 528.453 714.656 528.297 716.313 528.297 859.891 528.594 864 529 865.719 529.422 866.703 529.672 867.063 530.688 867.984 531.219 868.281 533.656 869.141 536.859 869.719 542.469 870.016 Z"/>
 </defs>
 <use id="Shape-2" stroke="#000000" stroke-opacity="1" stroke-linecap="round" fill="none" stroke-width="30" xlink:href="#stroke-path"/>
</svg>
