<?xml version="1.0" encoding="UTF-8"?>
<svg width="1980px" height="2326px" viewBox="0 0 1980 2326" xmlns="http://www.w3.org/2000/svg" xmlns:xlink="http://www.w3.org/1999/xlink" version="1.1">
 <!-- Generated by Pixelmator Pro 2.0.1 -->
 <defs>
  <path id="stroke-path" d="M1484.063 164.969 L1464.984 158.516 1441.266 151.344 1421.766 146.203 1394.141 139.734 1365.578 133.75 1332.766 127.641 1303.234 122.75 1258.469 116.297 1213.25 110.781 1168.922 106.219 1125.391 102.516 1084.016 99.641 1044.719 97.5 1044.719 97.484 997.563 95.719 967.734 95.125 931.172 95.094 893.063 95.875 854.734 97.484 815.328 100.016 776.172 103.422 736.438 107.828 706.391 111.813 677.078 116.281 647.531 121.422 598.641 131.391 570.344 138.094 542.391 145.469 514.563 153.656 496.844 159.328 470.469 168.547 453.516 175 428.078 185.563 412.344 192.688 396.844 200.219 374.828 211.922 355.219 223.484 341.656 232.156 322 245.719 302.391 260.469 282.828 276.516 270.625 287.234 251.906 304.844 239.672 317.219 222.406 335.922 210.938 349.297 194.672 369.719 184.375 383.75 169.625 405.563 159.391 422.141 148.5 441.516 138.469 461.344 129.578 481.031 122.969 497.484 115.703 518.047 110.453 535.375 106.141 551.953 102.297 569.875 99.344 587.203 97.125 604.703 95.641 623.203 95.031 640.734 95.156 661.531 96.313 688.281 98.172 712.078 100.547 734.328 103.406 756.047 106.906 778.625 110.781 800.625 117.578 834.359 122.688 857.063 122.672 857.063 130.859 890.391 139.828 923.75 149.469 956.953 159.391 989.109 159.406 989.109 169.828 1021 190.953 1081.406 206.875 1124.109 220.438 1159.047 239.531 1206.531 239.516 1206.531 264.766 1267.719 287.734 1320.375 303.141 1353.516 303.125 1353.516 319.328 1387.047 336.531 1421.406 360.578 1467.875 385.688 1514.688 411.531 1561.391 437.828 1607.563 467.578 1658.328 493.828 1701.891 519.594 1743.547 544.578 1782.859 565.656 1815.125 588.219 1848.656 609.234 1878.75 628.359 1904.875 691.391 1988.047 720.297 2025.344 737.828 2047.109 758.703 2071.953 774.266 2089.578 790.328 2106.859 806.625 2123.359 823.547 2139.313 840.094 2153.625 856.563 2166.547 872.078 2177.391 886.141 2186.031 900.109 2193.453 913.766 2199.469 927.703 2204.313 938.484 2207.078 952.234 2209.297 964.188 2209.984 972.484 2209.781 983.375 2208.797 991.719 2207.578 1002.906 2205.297 1011.25 2203.156 1022.313 2199.719 1033.797 2195.484 1043.016 2191.594 1054.688 2186.078 1065.656 2180.297 1087.891 2166.922 1110.188 2151.406 1131.859 2134.422 1153.328 2115.828 1180.172 2090.375 1205.469 2064.297 1230.328 2036.891 1261.5 2000.328 1288.188 1967.469 1316.594 1931.094 1345.203 1892.297 1380.656 1841.984 1419.5 1784.547 1450.484 1737.125 1485.656 1681.578 1521.344 1623.109 1549.875 1574.734 1584.531 1513.578 1611.344 1464.047 1637.063 1414.281 1655.094 1377.688 1672.359 1340.984 1688.172 1305.469 1754.313 1145.922 1778.063 1086.344 1791.828 1050.234 1807.297 1007.766 1818.313 975.875 1818.297 975.875 1828.953 943.188 1838.797 910.922 1847.953 878.344 1856.297 845.453 1863.531 813.156 1867.641 792.234 1871.266 771.203 1875.375 742 1877.969 716.656 1879.531 691.813 1879.984 667.266 1879.484 648.25 1877.922 626.625 1875.828 607.922 1871.938 583.234 1866.844 558.953 1860.656 535.375 1853.531 512.875 1845.172 490.391 1836.109 469.234 1826.031 448.563 1814.922 428.219 1803.078 408.688 1790.484 389.938 1777.141 371.766 1759.641 350.203 1744.375 333.078 1725.156 313.359 1708.906 298.063 1687.906 279.875 1670.766 266.203 1652.953 252.969 1635 240.578 1612.156 226 1593.531 215.031 1569.875 202.234 1550.828 192.75 1527.25 182 1507.688 173.875 Z"/>
 </defs>
 <use id="stroke-path-1" xlink:href="#stroke-path" fill="#000000" fill-opacity="1" stroke="none"/>
 <defs>
  <path id="stroke-path-3" d="M973.047 2219.766 L984.547 2218.734 993.438 2217.438 1005.266 2215.016 1025.422 2209.25 1037.594 2204.75 1059.078 2195.063 1070.547 2189.016 1093.328 2175.328 1116.141 2159.453 1138.203 2142.141 1160.031 2123.234 1187.203 2097.484 1212.766 2071.141 1237.828 2043.516 1269.188 2006.719 1296.016 1973.719 1324.563 1937.156 1353.297 1898.156 1388.875 1847.672 1427.828 1790.094 1458.875 1742.531 1494.141 1686.859 1529.922 1628.25 1558.531 1579.734 1593.266 1518.422 1620.188 1468.734 1645.984 1418.781 1664.109 1382.047 1681.438 1345.141 1697.359 1309.438 1763.578 1149.703 1787.375 1089.984 1801.188 1053.719 1816.719 1011.125 1827.797 979.047 1838.469 946.203 1848.391 913.75 1857.594 880.938 1866.031 847.781 1873.313 815.156 1881.141 772.813 1885.297 743.203 1887.938 717.469 1889.516 692.234 1889.969 667.25 1889.453 647.766 1887.875 625.703 1885.719 606.594 1881.781 581.438 1876.578 556.656 1870.25 532.594 1862.969 509.625 1854.453 486.688 1845.188 465.063 1834.906 443.984 1823.594 423.25 1811.484 403.313 1798.656 384.203 1785.063 365.672 1767.266 343.719 1751.688 326.25 1732.141 306.219 1715.594 290.656 1694.281 272.188 1676.859 258.281 1658.766 244.859 1640.531 232.25 1617.375 217.469 1598.438 206.328 1574.484 193.359 1555.109 183.719 1531.25 172.828 1511.375 164.578 1487.422 155.563 1468.016 149 1444 141.734 1424.188 136.5 1396.313 129.969 1367.5 123.938 1334.5 117.813 1304.75 112.875 1259.781 106.391 1214.359 100.844 1169.859 96.281 1126.156 92.563 1084.641 89.672 1045.188 87.5 997.844 85.734 967.828 85.125 931.078 85.109 892.75 85.875 854.188 87.5 814.563 90.063 775.188 93.469 735.219 97.906 704.984 101.922 675.453 106.406 645.656 111.594 596.484 121.641 567.922 128.406 539.703 135.844 511.625 144.094 493.672 149.844 467.047 159.156 449.813 165.703 424.016 176.438 392.375 191.281 369.922 203.188 349.984 214.969 336.109 223.828 316.156 237.625 296.219 252.625 276.344 268.906 263.891 279.828 244.906 297.703 232.438 310.328 214.922 329.297 203.219 342.938 186.734 363.656 176.203 377.984 161.219 400.156 150.781 417.078 139.672 436.828 129.453 457.031 120.359 477.109 113.609 493.953 106.188 514.938 100.813 532.672 96.406 549.656 92.469 567.984 89.453 585.734 87.156 603.672 85.656 622.625 85.016 640.594 85.141 661.781 86.328 688.891 88.219 713 90.609 735.5 93.5 757.531 100.922 802.422 107.781 836.438 112.938 859.359 121.156 892.891 130.188 926.438 139.891 959.828 149.859 992.141 160.344 1024.203 181.531 1084.797 197.516 1127.672 211.141 1162.734 230.25 1210.297 255.563 1271.641 278.594 1324.484 294.094 1357.813 310.344 1391.469 327.609 1425.938 351.719 1472.531 376.906 1519.484 402.797 1566.297 429.156 1612.578 458.969 1663.438 485.281 1707.125 511.125 1748.875 536.156 1788.281 557.313 1820.656 579.969 1854.313 601.078 1884.563 620.328 1910.844 683.453 1994.141 712.453 2031.563 730.094 2053.469 751.109 2078.484 766.859 2096.297 783.094 2113.781 799.641 2130.516 816.844 2146.75 833.734 2161.344 850.609 2174.578 866.578 2185.766 881.172 2194.719 895.719 2202.453 910.094 2208.797 924.797 2213.906 936.438 2216.875 951.125 2219.25 964.016 2219.984 Z"/>
 </defs>
 <use id="stroke-path-2" stroke="#000000" stroke-opacity="1" stroke-linecap="round" fill="none" stroke-width="20" xlink:href="#stroke-path-3"/>
 <path id="Shape" d="M964.099 2224.998 C835.174 2224.192 707.543 2031.946 623.09 1922.666 530.432 1802.771 338.478 1486.176 248.912 1268.598 203.464 1158.193 78.559 868.883 80.012 643.193 81.313 440.981 232.029 270.717 378.066 193.049 543.228 105.209 788.853 76.523 981.678 80.33 1093.309 82.534 1283.165 95.746 1428.613 132.447 1631.952 183.756 1872.381 351.27 1893.738 635.375 1909.132 840.155 1779.83 1121.1 1714.445 1281.627 1612.567 1531.748 1402.83 1846.313 1312.889 1960.461 1222.947 2074.609 1097.495 2221.178 968.685 2224.945 967.156 2224.99 965.628 2225.008 964.099 2224.998 Z M292.801 962 L376.801 962 376.801 615.5 292.801 615.5 Z M542 962 L569.301 962 C632.301 962 679.199 927.7 679.199 860.5 L679.199 715.6 C679.899 657.5 630.901 614.801 572.801 614.801 L535.699 614.801 C478.299 614.801 429.301 657.5 429.301 715.6 L429.301 860.5 C429.301 924.2 475.5 962 542 962 Z M725.4 962 L809.4 962 809.4 692.5 852.099 692.5 C860.499 692.5 873.099 702.301 873.099 716.301 L873.099 962 957.099 962 957.099 717 C957.099 702.3 969.699 692.5 978.099 692.5 L1003.301 692.5 C1011.701 692.5 1024.301 702.301 1024.301 716.301 L1024.301 962 1108.301 962 1108.301 721.901 C1108.301 663.801 1069.099 615.5 1011.699 615.5 L981.599 615.5 C949.399 615.5 918.599 642.1 915.099 657.5 910.899 642.1 887.1 615.5 850 615.5 L725.4 615.5 Z M1160.801 962 L1244.801 962 1244.801 692.5 1287.5 692.5 C1295.9 692.5 1308.5 702.301 1308.5 716.301 L1308.5 962 1392.5 962 1392.5 717 C1392.5 702.3 1405.1 692.5 1413.5 692.5 L1438.699 692.5 C1447.099 692.5 1459.699 702.301 1459.699 716.301 L1459.699 962 1543.699 962 1543.699 721.901 C1543.699 663.801 1504.499 615.5 1447.099 615.5 L1417 615.5 C1384.8 615.5 1354 642.1 1350.5 657.5 1346.3 642.1 1322.5 615.5 1285.4 615.5 L1160.801 615.5 Z M1603.199 962 L1687.199 962 1687.199 615.5 1603.199 615.5 Z M542 885 C525.2 885 513.301 879.4 513.301 860.5 L513.301 715.6 C513.301 702.3 525.899 691.801 535.699 691.801 L572.801 691.801 C583.301 691.801 595.9 702.3 595.9 715.6 L595.9 860.5 C595.2 878.7 588.901 885 569.301 885 Z M292.801 556.699 L376.801 556.699 376.801 472 292.801 472 Z M1603.199 556.699 L1687.199 556.699 1687.199 472 1603.199 472 Z" fill="#ffffff" fill-opacity="1" stroke="none"/>
</svg>
