<?xml version="1.0" encoding="UTF-8"?>
<svg width="1980px" height="2326px" viewBox="0 0 1980 2326" xmlns="http://www.w3.org/2000/svg" xmlns:xlink="http://www.w3.org/1999/xlink" version="1.1">
 <!-- Generated by Pixelmator Pro 2.0.1 -->
 <path id="Shape" d="M964.099 2224.998 C835.174 2224.192 707.543 2031.946 623.09 1922.666 530.432 1802.771 338.478 1486.176 248.912 1268.598 203.464 1158.193 78.559 868.883 80.012 643.193 81.313 440.981 232.029 270.717 378.066 193.049 543.228 105.209 788.853 76.523 981.678 80.33 1093.309 82.534 1283.165 95.746 1428.613 132.447 1631.952 183.756 1872.381 351.27 1893.738 635.375 1909.132 840.155 1779.83 1121.1 1714.445 1281.627 1612.567 1531.748 1402.83 1846.313 1312.889 1960.461 1222.947 2074.609 1097.495 2221.178 968.685 2224.945 967.156 2224.99 965.628 2225.008 964.099 2224.998 Z M292.801 962 L376.801 962 376.801 615.5 292.801 615.5 Z M542 962 L569.301 962 C632.301 962 679.199 927.7 679.199 860.5 L679.199 715.6 C679.899 657.5 630.901 614.801 572.801 614.801 L535.699 614.801 C478.299 614.801 429.301 657.5 429.301 715.6 L429.301 860.5 C429.301 924.2 475.5 962 542 962 Z M725.4 962 L809.4 962 809.4 692.5 852.099 692.5 C860.499 692.5 873.099 702.301 873.099 716.301 L873.099 962 957.099 962 957.099 717 C957.099 702.3 969.699 692.5 978.099 692.5 L1003.301 692.5 C1011.701 692.5 1024.301 702.301 1024.301 716.301 L1024.301 962 1108.301 962 1108.301 721.901 C1108.301 663.801 1069.099 615.5 1011.699 615.5 L981.599 615.5 C949.399 615.5 918.599 642.1 915.099 657.5 910.899 642.1 887.1 615.5 850 615.5 L725.4 615.5 Z M1160.801 962 L1244.801 962 1244.801 692.5 1287.5 692.5 C1295.9 692.5 1308.5 702.301 1308.5 716.301 L1308.5 962 1392.5 962 1392.5 717 C1392.5 702.3 1405.1 692.5 1413.5 692.5 L1438.699 692.5 C1447.099 692.5 1459.699 702.301 1459.699 716.301 L1459.699 962 1543.699 962 1543.699 721.901 C1543.699 663.801 1504.499 615.5 1447.099 615.5 L1417 615.5 C1384.8 615.5 1354 642.1 1350.5 657.5 1346.3 642.1 1322.5 615.5 1285.4 615.5 L1160.801 615.5 Z M1603.199 962 L1687.199 962 1687.199 615.5 1603.199 615.5 Z M542 885 C525.2 885 513.301 879.4 513.301 860.5 L513.301 715.6 C513.301 702.3 525.899 691.801 535.699 691.801 L572.801 691.801 C583.301 691.801 595.9 702.3 595.9 715.6 L595.9 860.5 C595.2 878.7 588.901 885 569.301 885 Z M292.801 556.699 L376.801 556.699 376.801 472 292.801 472 Z M1603.199 556.699 L1687.199 556.699 1687.199 472 1603.199 472 Z" fill="#FFFFFF" fill-opacity="1" stroke="none"/>
</svg>
