<svg height="490" viewBox="0 0 1396 490" width="1396" xmlns="http://www.w3.org/2000/svg"><g fill-rule="evenodd" fill="white"><path d="m1395.199951 84.700073v-84.700073h-84v84.700073zm0 405.299927v-346.5h-84v346.5zm-270.199951-346.5c-32.200073 0-63 26.600098-66.5 42-4.200073-15.399902-28-42-65.100098-42h-124.599975v346.5h84v-269.5h42.700073c8.399902 0 21 9.800049 21 23.800049v245.699951h84v-245c0-14.699951 12.599976-24.5 21-24.5h25.199951c8.400025 0 21 9.800049 21 23.800049v245.699951h84v-240.099976c0-58.099975-39.199951-106.400024-96.599975-106.400024zm-435.400024 0c-32.200074 0-63 26.600098-66.5 42-4.200074-15.399902-28-42-65.099976-42h-124.600098v346.5h84v-269.5h42.700074c8.400024 0 21 9.800049 21 23.800049v245.699951h84v-245c0-14.699951 12.599975-24.5 21-24.5h25.199951c8.400024 0 21 9.800049 21 23.800049v245.699951h84v-240.099976c0-58.099975-39.199951-106.400024-96.599976-106.400024zm-445.900147-.699951c-57.400024 0-106.400024 42.699951-106.400024 100.800049v144.899902c0 63.700073 46.200073 101.5 112.700073 101.5h27.299927c63 0 109.900024-34.299927 109.900024-101.5v-144.899902c.699951-58.100098-48.300049-100.800049-106.400024-100.800049zm37.099976 77c10.5 0 23.099975 10.5 23.099975 23.800049v144.899902c-.699951 18.200073-7 24.5-26.599975 24.5h-27.299927c-16.800049 0-28.700073-5.599976-28.700073-24.5v-144.899902c0-13.300049 12.599975-23.800049 22.400024-23.800049zm-195.999878-135.099976v-84.700073h-84v84.700073zm0 405.299927v-346.5h-84v346.5z"/><path d="m84.799927 0v84.700073h-84v-84.700073zm1310.400024 0v84.700073h-84v-84.700073zm-1340.400024 30v24.700073h-24v-24.700073zm1310.400024 0v24.700073h-24v-24.700073zm-1227.900146 213.600098c0-58.100098 49-100.800049 106.400024-100.800049h37.099976c58.099975 0 107.099975 42.699951 106.400024 100.800049v144.899902c0 67.200073-46.900024 101.5-109.900024 101.5h-27.299927c-66.5 0-112.700073-37.799927-112.700073-101.5zm-52.499878-100.100098v346.5h-84v-346.5zm538.300049 42c3.5-15.399902 34.299926-42 66.5-42h30.099975c57.400025 0 96.599976 48.300049 96.599976 106.400024v240.099976h-84v-245.699951c0-14-12.599976-23.800049-21-23.800049h-25.199951c-8.400025 0-21 9.800049-21 24.5v245h-84v-245.699951c0-14-12.599976-23.800049-21-23.800049h-42.700074v269.5h-84v-346.5h124.600098c37.099976 0 60.899902 26.600098 65.099976 42zm435.400024 0c3.5-15.399902 34.299927-42 66.5-42h30.099976c57.400024 0 96.599975 48.300049 96.599975 106.400024v240.099976h-84v-245.699951c0-14-12.599975-23.800049-21-23.800049h-25.199951c-8.400024 0-21 9.800049-21 24.5v245h-84v-245.699951c0-14-12.600098-23.800049-21-23.800049h-42.700073v269.5h-84v-346.5h124.599975c37.100098 0 60.900025 26.600098 65.100098 42zm336.699951-42v346.5h-84v-346.5zm-1151.500122 29.300049h37.099976c43.355621 0 76.877868 30.955231 76.402191 70.438659-.001434.120453-.002167.240922-.002167.36139v144.899902c0 24.059784-7.431854 41.551819-20.96521 53.272675-13.495209 11.687805-33.818085 18.227325-58.934814 18.227325h-27.299927c-26.19017 0-47.37323-7.02713-61.511322-19.421295-13.716278-12.024414-21.188751-29.419586-21.188751-52.078705v-144.899902c0-39.700287 33.678772-70.800049 76.400024-70.800049zm-188.899902.699951v286.5h-24v-286.5zm634.800049 0h30.099975c19.002442 0 35.277222 7.53125 47.279297 21.203735 12.252564 13.957779 19.320679 33.589646 19.320679 55.196289v210.099976h-24v-215.699951c0-29.168533-24.631409-53.800049-51-53.800049h-25.199951c-26.608582 0-51 24.899628-51 54.5v215h-24v-215.699951c0-29.168533-24.631409-53.800049-51-53.800049h-42.700074c-16.568542 0-30 13.431458-30 30v239.5h-24v-286.5h94.600098c10.166016 0 19.177795 3.279419 26.559998 8.975891 3.075012 2.372879 5.67749 5.043274 7.583313 7.653885.760009 1.040985 1.354187 1.999344 1.762939 2.79895.137939.269837.238037.489044.300598.64534 8.19812 29.437256 49.780518 28.996018 57.76117.109329.329589-.52391.840576-1.224731 1.517639-2.037201 2.249756-2.699691 5.531311-5.682937 9.388489-8.402359 8.724243-6.150955 18.539978-9.743835 26.72583-9.743835zm435.400024 0h30.099976c19.002441 0 35.277221 7.53125 47.279296 21.203735 12.252564 13.957779 19.320679 33.589646 19.320679 55.196289v210.099976h-24v-215.699951c0-29.168533-24.63147-53.800049-51-53.800049h-25.199951c-26.608643 0-51 24.899628-51 54.5v215h-24v-215.699951c0-29.168518-24.631531-53.800049-51-53.800049h-42.700073c-16.568543 0-30 13.431458-30 30v239.5h-24v-286.5h94.599975c10.166077 0 19.177918 3.279419 26.56012 8.975906 3.075012 2.372879 5.677429 5.043259 7.583313 7.65387.76001 1.040985 1.354248 1.999359 1.762939 2.79895.13794.269837.237915.489044.300538.64534.000976.002335.001831.004654.002075.007263 8.202881 29.429993 49.779297 28.98639 57.759277.101899.32959-.523896.840576-1.22464 1.517578-2.037034 2.249756-2.699691 5.53125-5.682937 9.388428-8.402359 8.724243-6.150955 18.540039-9.743835 26.72583-9.743835zm240.199951 0v286.5h-24v-286.5zm-1084.400146 16.300049h-37.099976c-27.177307 0-52.400024 24.718292-52.400024 53.800049v144.899902c0 18.01889 6.666839 33.416107 20.183288 43.43689 10.84964 8.04367 23.652115 11.06311 38.516785 11.06311h27.299927c16.904693 0 30.123108-3.444519 40.890197-13.524292 10.937928-10.239746 15.050446-23.255249 15.687623-39.822784.01477-.384156.022155-.768525.022155-1.152924v-144.899902c0-29.340073-25.458252-53.800049-53.099975-53.800049zm23.099975 53.800049c0-13.300049-12.599975-23.800049-23.099975-23.800049h-37.099976c-9.800049 0-22.400024 10.5-22.400024 23.800049v144.899902c0 18.900024 11.900024 24.5 28.700073 24.5h27.299927c19.599975 0 25.900024-6.299927 26.599975-24.5z"/></g></svg>
